<svg xmlns="http://www.w3.org/2000/svg" version="1.1" xmlns:xlink="http://www.w3.org/1999/xlink" xmlns:svgjs="http://svgjs.dev/svgjs" width="1500" height="1500" viewBox="0 0 1500 1500"><rect width="1500" height="1500" fill="#f0e8dd"></rect><g transform="matrix(0.6666666666666666,0,0,0.6666666666666666,249.39393939393938,627.5369579999405)"><svg viewBox="0 0 396 97" data-background-color="#f0e8dd" preserveAspectRatio="xMidYMid meet" height="367" width="1500" xmlns="http://www.w3.org/2000/svg" xmlns:xlink="http://www.w3.org/1999/xlink"><g id="tight-bounds" transform="matrix(1,0,0,1,0.2400000000000091,0.05142400819795512)"><svg viewBox="0 0 395.52 96.89715198360409" height="96.89715198360409" width="395.52"><g><svg viewBox="0 0 395.52 96.89715198360409" height="96.89715198360409" width="395.52"><g><svg viewBox="0 0 395.52 96.89715198360409" height="96.89715198360409" width="395.52"><g id="textblocktransform"><svg viewBox="0 0 395.52 96.89715198360409" height="96.89715198360409" width="395.52" id="textblock"><g><rect width="106.79039999999999" height="5.663727983608594" y="84.4319599285587" fill="#261f20" data-fill-palette-color="tertiary"></rect><rect width="106.79039999999999" height="5.663727983608594" y="84.4319599285587" x="288.7296" fill="#261f20" data-fill-palette-color="tertiary"></rect></g><g><svg viewBox="0 0 395.52 62.80398281102609" height="62.80398281102609" width="395.52"><g transform="matrix(1,0,0,1,0,0)"><svg width="395.52" viewBox="3.91 -36.11 232.92000000000002 36.989999999999995" height="62.80398281102609" data-palette-color="#050505"><path d="M25.73-2.1L25.73-2.1Q26.98-2.1 26.98-1.12L26.98-1.12Q26.98-0.68 26.44-0.34 25.9 0 24.58 0L24.58 0 3.91 0 3.91-34.55Q13.53-34.55 23.14-34.55L23.14-34.55 25.15-34.62Q26.98-34.62 26.98-33.54L26.98-33.54Q26.98-33.13 26.67-32.78 26.37-32.42 25.98-32.42L25.98-32.42Q25.34-32.42 24.63-32.57L24.63-32.57Q23.58-32.79 21.75-32.79L21.75-32.79 16.36-32.79 16.36-25.34 20.8-25.34Q20.8-25.34 23.8-25.46L23.8-25.46Q24.34-25.46 24.72-25.21 25.1-24.95 25.1-24.49L25.1-24.49Q25.1-23.46 23.73-23.46L23.73-23.46 22.68-23.49Q21.88-23.56 21.34-23.56L21.34-23.56 16.36-23.56 16.36-1.78 21.75-1.78Q23.56-1.78 24.32-1.93L24.32-1.93Q25.22-2.1 25.73-2.1ZM51.9 0L51.9-1.34Q48.85 0.46 45.44 0.46 42.04 0.46 39.46-0.55 36.89-1.56 35.06-3.37L35.06-3.37Q31.25-7.15 31.25-13.21L31.25-13.21Q31.25-18.82 35.01-22.56L35.01-22.56Q39.01-26.51 45.46-26.51L45.46-26.51Q48.87-26.51 51.9-25.02L51.9-25.02 51.9-34.55 61.96-34.55 61.96 0 51.9 0ZM44.97-24.73L44.97-24.73Q44.21-24.73 43.53-24.63L43.53-24.63 43.53-1.49Q44.41-1.34 45.43-1.34L45.43-1.34Q48.83-1.34 51.9-3.49L51.9-3.49 51.9-22.85Q48.61-24.73 44.97-24.73ZM78.49 0.46L78.49 0.46Q69.92 0.46 69.92-7.91L69.92-7.91 69.92-26.07 80.37-26.07 80.37-2.17Q80.61-2.05 80.98-2.05L80.98-2.05 81.78-2.05Q83.74-2.05 86.42-4.69L86.42-4.69Q87.23-5.49 87.93-6.45L87.93-6.45 87.93-26.07 98.43-26.07 98.43 0 87.93 0 87.93-3.76Q83.95 0.46 78.49 0.46ZM103.39 0.37Q102.92 0.32 102.68-0.05 102.43-0.42 102.48-0.85L102.48-0.85Q102.6-1.61 102.95-2.25 103.29-2.88 103.45-3.2 103.61-3.52 103.78-3.91L103.78-3.91 104.7-6.05 114.74-36.11 125.53-15.26 136-36.11 148.53 0 135.42 0 129.36-18.65 119.99 0.88 110.12-16.7 106.71-6.03Q105.9-4.25 105.56-3 105.22-1.76 105-1.07L105-1.07Q104.51 0.46 103.39 0.37L103.39 0.37ZM169.69 0L169.69-1.61Q166.57 0.46 162.76 0.46L162.76 0.46Q157.7 0.46 154.65-2.08L154.65-2.08Q151.48-4.69 151.48-9.33L151.48-9.33Q151.48-13.43 154.63-16.06L154.63-16.06Q157.85-18.73 163.1-18.73L163.1-18.73Q166.62-18.73 169.69-17.38L169.69-17.38 169.69-24.1Q167.47-24.73 165.77-24.73 164.08-24.73 162.91-24.58 161.73-24.44 160.68-24.15L160.68-24.15Q158.41-23.51 157.24-22.44L157.24-22.44Q156.56-21.8 156-21.8 155.43-21.8 155.14-22.08 154.85-22.36 154.85-22.71 154.85-23.05 154.97-23.33 155.09-23.61 155.43-23.9L155.43-23.9Q156.17-24.54 157.88-25.17L157.88-25.17Q161.42-26.51 164.98-26.51L164.98-26.51Q175.82-26.51 178.82-21.34L178.82-21.34Q180.14-19.04 180.14-15.31L180.14-15.31 180.14 0 169.69 0ZM169.69-3.71L169.69-15.48Q166.62-16.97 163.56-16.97L163.56-16.97Q163.08-16.97 162.64-16.89L162.64-16.89 162.64-1.37Q162.76-1.34 162.91-1.34 163.05-1.34 163.2-1.34L163.2-1.34Q166.54-1.34 169.69-3.71L169.69-3.71ZM197.81 0.46L197.81 0.46Q188.24 0.46 188.24-8.28L188.24-8.28 188.22-24.29 185.41-24.17Q184.09-24.17 184.09-25.17 184.09-26.17 185.51-26.17L185.51-26.17 187.85-26.07 188.22-26.07 188.22-29.86 198.69-34.55 198.69-26.07 201.97-26.07 204.28-26.17Q205.72-26.17 205.72-25.15L205.72-25.15Q205.72-24.68 205.32-24.43 204.92-24.17 204.41-24.17L204.41-24.17 201.38-24.29 198.69-24.29 198.69-1.34Q201.55-1.39 203.45-2.98L203.45-2.98Q204.36-3.66 204.74-4.74 205.11-5.81 205.42-6.12 205.72-6.42 206.14-6.42L206.14-6.42Q206.55-6.42 206.85-6.09 207.14-5.76 207.14-5.31 207.14-4.86 206.9-4.31 206.65-3.76 206.16-3.15L206.16-3.15Q205.07-1.78 203.63-0.98L203.63-0.98Q201.01 0.46 197.81 0.46ZM233.94-5.93L233.94-5.93Q234.9-5.93 234.9-5.05L234.9-5.05Q234.9-4.39 234.04-3.49L234.04-3.49Q230.19 0.46 223.47 0.46L223.47 0.46Q217.44 0.46 213.32-3.17L213.32-3.17Q209.04-6.96 209.04-12.74L209.04-12.74Q209.04-18.65 212.9-22.46L212.9-22.46Q216.98-26.51 223.74-26.51L223.74-26.51Q229.16-26.51 232.85-23.22L232.85-23.22Q236.83-19.68 236.83-13.92L236.83-13.92Q236.83-13.09 236.78-12.16L236.78-12.16 220.66-12.16 220.66-1.68Q222.32-1.34 224.4-1.34L224.4-1.34Q228.79-1.34 231.89-4.25L231.89-4.25Q232.53-4.88 232.8-5.25L232.8-5.25Q233.36-5.93 233.94-5.93ZM227.43-13.94L227.43-24.27Q225.84-24.73 223.84-24.73 221.84-24.73 220.66-24.46L220.66-24.46 220.66-13.94 227.43-13.94Z" opacity="1" transform="matrix(1,0,0,1,0,0)" fill="#050505" class="wordmark-text-0" data-fill-palette-color="primary" id="text-0"></path></svg></g></svg></g><g transform="matrix(1,0,0,1,106.79039999999999,77.63049585712189)"><svg viewBox="0 0 181.9392 19.266656126482214" height="19.266656126482214" width="181.9392"><g transform="matrix(1,0,0,1,8,0)"><svg width="165.9392" viewBox="2.4 -37 404.76000000000005 47" height="19.266656126482214" data-palette-color="#050505"><path d="M30.25-32.4L30.25-32.4Q30.85-32 30.95-31.38 31.05-30.75 30.65-30.15L30.65-30.15Q30.3-29.7 29.75-29.65 29.2-29.6 28.7-29.85L28.7-29.85Q26.8-31.1 24.63-31.8 22.45-32.5 19.95-32.5L19.95-32.5Q16.9-32.5 14.28-31.43 11.65-30.35 9.7-28.33 7.75-26.3 6.68-23.55 5.6-20.8 5.6-17.5L5.6-17.5Q5.6-14.1 6.7-11.33 7.8-8.55 9.78-6.55 11.75-4.55 14.35-3.5 16.95-2.45 19.95-2.45L19.95-2.45Q22.4-2.45 24.58-3.15 26.75-3.85 28.65-5.05L28.65-5.05Q29.15-5.35 29.73-5.28 30.3-5.2 30.65-4.7L30.65-4.7Q31.1-4.15 30.98-3.53 30.85-2.9 30.3-2.55L30.3-2.55Q29.05-1.75 27.35-1.05 25.65-0.35 23.75 0.08 21.85 0.5 19.95 0.5L19.95 0.5Q16.35 0.5 13.2-0.8 10.05-2.1 7.6-4.48 5.15-6.85 3.78-10.15 2.4-13.45 2.4-17.5L2.4-17.5Q2.4-21.4 3.75-24.68 5.1-27.95 7.5-30.35 9.9-32.75 13.1-34.1 16.3-35.45 19.95-35.45L19.95-35.45Q22.8-35.45 25.45-34.65 28.1-33.85 30.25-32.4ZM60.2-12.8L60.2-12.8Q60.2-9 58.52-5.98 56.85-2.95 54-1.23 51.15 0.5 47.55 0.5L47.55 0.5Q44 0.5 41.12-1.23 38.25-2.95 36.57-5.98 34.9-9 34.9-12.8L34.9-12.8Q34.9-16.65 36.57-19.65 38.25-22.65 41.12-24.4 44-26.15 47.55-26.15L47.55-26.15Q51.15-26.15 54-24.4 56.85-22.65 58.52-19.65 60.2-16.65 60.2-12.8ZM57.2-12.8L57.2-12.8Q57.2-15.85 55.95-18.23 54.7-20.6 52.52-21.98 50.35-23.35 47.55-23.35L47.55-23.35Q44.8-23.35 42.62-21.98 40.45-20.6 39.17-18.23 37.9-15.85 37.9-12.8L37.9-12.8Q37.9-9.75 39.17-7.4 40.45-5.05 42.62-3.68 44.8-2.3 47.55-2.3L47.55-2.3Q50.35-2.3 52.52-3.68 54.7-5.05 55.95-7.4 57.2-9.75 57.2-12.8ZM78.4-26.15L78.4-26.15Q81.7-26.15 83.67-24.83 85.65-23.5 86.52-21.23 87.4-18.95 87.4-16.2L87.4-16.2 87.4-1.5Q87.4-0.9 86.95-0.45 86.5 0 85.9 0L85.9 0Q85.2 0 84.8-0.45 84.4-0.9 84.4-1.5L84.4-1.5 84.4-16.05Q84.4-18.05 83.75-19.7 83.09-21.35 81.62-22.35 80.15-23.35 77.75-23.35L77.75-23.35Q75.59-23.35 73.67-22.35 71.75-21.35 70.55-19.7 69.34-18.05 69.34-16.05L69.34-16.05 69.34-1.5Q69.34-0.9 68.9-0.45 68.45 0 67.84 0L67.84 0Q67.15 0 66.75-0.45 66.34-0.9 66.34-1.5L66.34-1.5 66.34-23.9Q66.34-24.5 66.77-24.95 67.2-25.4 67.84-25.4L67.84-25.4Q68.5-25.4 68.92-24.95 69.34-24.5 69.34-23.9L69.34-23.9 69.34-19.7 68.2-17.9Q68.3-19.5 69.22-20.98 70.15-22.45 71.59-23.63 73.05-24.8 74.82-25.48 76.59-26.15 78.4-26.15ZM107.29-26.15L107.29-26.15Q110.59-26.15 112.57-24.83 114.54-23.5 115.42-21.23 116.29-18.95 116.29-16.2L116.29-16.2 116.29-1.5Q116.29-0.9 115.84-0.45 115.39 0 114.79 0L114.79 0Q114.09 0 113.69-0.45 113.29-0.9 113.29-1.5L113.29-1.5 113.29-16.05Q113.29-18.05 112.64-19.7 111.99-21.35 110.52-22.35 109.04-23.35 106.64-23.35L106.64-23.35Q104.49-23.35 102.57-22.35 100.64-21.35 99.44-19.7 98.24-18.05 98.24-16.05L98.24-16.05 98.24-1.5Q98.24-0.9 97.79-0.45 97.34 0 96.74 0L96.74 0Q96.04 0 95.64-0.45 95.24-0.9 95.24-1.5L95.24-1.5 95.24-23.9Q95.24-24.5 95.67-24.95 96.09-25.4 96.74-25.4L96.74-25.4Q97.39-25.4 97.82-24.95 98.24-24.5 98.24-23.9L98.24-23.9 98.24-19.7 97.09-17.9Q97.19-19.5 98.12-20.98 99.04-22.45 100.49-23.63 101.94-24.8 103.72-25.48 105.49-26.15 107.29-26.15ZM135.49 0.5L135.49 0.5Q131.64 0.5 128.69-1.15 125.74-2.8 124.09-5.75 122.44-8.7 122.44-12.65L122.44-12.65Q122.44-16.9 124.12-19.9 125.79-22.9 128.47-24.53 131.14-26.15 134.14-26.15L134.14-26.15Q136.34-26.15 138.42-25.38 140.49-24.6 142.09-23.08 143.69-21.55 144.69-19.35 145.69-17.15 145.74-14.25L145.74-14.25Q145.74-13.65 145.29-13.23 144.84-12.8 144.24-12.8L144.24-12.8 124.19-12.8 123.59-15.5 143.29-15.5 142.64-14.9 142.64-15.9Q142.39-18.25 141.09-19.9 139.79-21.55 137.97-22.4 136.14-23.25 134.14-23.25L134.14-23.25Q132.64-23.25 131.06-22.65 129.49-22.05 128.22-20.78 126.94-19.5 126.14-17.53 125.34-15.55 125.34-12.85L125.34-12.85Q125.34-9.9 126.54-7.5 127.74-5.1 129.99-3.7 132.24-2.3 135.44-2.3L135.44-2.3Q137.14-2.3 138.54-2.8 139.94-3.3 141.02-4.13 142.09-4.95 142.79-5.85L142.79-5.85Q143.34-6.3 143.84-6.3L143.84-6.3Q144.39-6.3 144.77-5.9 145.14-5.5 145.14-5L145.14-5Q145.14-4.4 144.64-3.95L144.64-3.95Q143.14-2.15 140.74-0.83 138.34 0.5 135.49 0.5ZM162.99-26.15L162.99-26.15Q165.39-26.15 167.39-25.63 169.39-25.1 170.61-24.2 171.84-23.3 171.84-22.25L171.84-22.25Q171.84-21.75 171.46-21.28 171.09-20.8 170.54-20.8L170.54-20.8Q169.89-20.8 169.51-21.1 169.14-21.4 168.79-21.8 168.44-22.2 167.74-22.55L167.74-22.55Q167.09-22.85 165.86-23.1 164.64-23.35 163.14-23.35L163.14-23.35Q160.34-23.35 158.09-21.95 155.84-20.55 154.54-18.18 153.24-15.8 153.24-12.85L153.24-12.85Q153.24-9.85 154.46-7.45 155.69-5.05 157.91-3.68 160.14-2.3 163.04-2.3L163.04-2.3Q165.04-2.3 166.16-2.65 167.29-3 168.04-3.45L168.04-3.45Q169.04-4 169.46-4.53 169.89-5.05 170.59-5.05L170.59-5.05Q171.19-5.05 171.54-4.67 171.89-4.3 171.89-3.7L171.89-3.7Q171.89-2.9 170.71-1.93 169.54-0.95 167.49-0.23 165.44 0.5 162.74 0.5L162.74 0.5Q159.04 0.5 156.21-1.25 153.39-3 151.81-6.03 150.24-9.05 150.24-12.85L150.24-12.85Q150.24-16.5 151.84-19.5 153.44-22.5 156.29-24.33 159.14-26.15 162.99-26.15ZM175.99-25.45L175.99-25.45 187.63-25.45Q188.24-25.45 188.63-25.03 189.03-24.6 189.03-24L189.03-24Q189.03-23.45 188.63-23.05 188.24-22.65 187.63-22.65L187.63-22.65 175.99-22.65Q175.38-22.65 174.96-23.08 174.53-23.5 174.53-24.05L174.53-24.05Q174.53-24.65 174.96-25.05 175.38-25.45 175.99-25.45ZM181.13-32.5L181.13-32.5Q181.78-32.5 182.21-32.05 182.63-31.6 182.63-31L182.63-31 182.63-5.9Q182.63-4.5 183.01-3.8 183.38-3.1 183.99-2.88 184.59-2.65 185.19-2.65L185.19-2.65Q185.59-2.65 185.91-2.78 186.24-2.9 186.63-2.9L186.63-2.9Q187.09-2.9 187.41-2.55 187.74-2.2 187.74-1.65L187.74-1.65Q187.74-0.95 186.94-0.48 186.13 0 185.03 0L185.03 0Q184.59 0 183.69-0.08 182.78-0.15 181.84-0.63 180.88-1.1 180.26-2.3 179.63-3.5 179.63-5.75L179.63-5.75 179.63-31Q179.63-31.6 180.06-32.05 180.49-32.5 181.13-32.5ZM197.48-24.5L197.48-1.5Q197.48-0.9 197.03-0.45 196.58 0 195.98 0L195.98 0Q195.33 0 194.91-0.45 194.48-0.9 194.48-1.5L194.48-1.5 194.48-24.5Q194.48-25.1 194.91-25.55 195.33-26 195.98-26L195.98-26Q196.63-26 197.06-25.55 197.48-25.1 197.48-24.5L197.48-24.5ZM195.98-29.35L195.98-29.35Q194.93-29.35 194.41-29.83 193.88-30.3 193.88-31.2L193.88-31.2 193.88-31.7Q193.88-32.6 194.46-33.08 195.03-33.55 196.03-33.55L196.03-33.55Q196.98-33.55 197.51-33.08 198.03-32.6 198.03-31.7L198.03-31.7 198.03-31.2Q198.03-30.3 197.51-29.83 196.98-29.35 195.98-29.35ZM217.33-26.15L217.33-26.15Q220.63-26.15 222.6-24.83 224.58-23.5 225.45-21.23 226.33-18.95 226.33-16.2L226.33-16.2 226.33-1.5Q226.33-0.9 225.88-0.45 225.43 0 224.83 0L224.83 0Q224.13 0 223.73-0.45 223.33-0.9 223.33-1.5L223.33-1.5 223.33-16.05Q223.33-18.05 222.68-19.7 222.03-21.35 220.55-22.35 219.08-23.35 216.68-23.35L216.68-23.35Q214.53-23.35 212.6-22.35 210.68-21.35 209.48-19.7 208.28-18.05 208.28-16.05L208.28-16.05 208.28-1.5Q208.28-0.9 207.83-0.45 207.38 0 206.78 0L206.78 0Q206.08 0 205.68-0.45 205.28-0.9 205.28-1.5L205.28-1.5 205.28-23.9Q205.28-24.5 205.7-24.95 206.13-25.4 206.78-25.4L206.78-25.4Q207.43-25.4 207.85-24.95 208.28-24.5 208.28-23.9L208.28-23.9 208.28-19.7 207.13-17.9Q207.23-19.5 208.15-20.98 209.08-22.45 210.53-23.63 211.98-24.8 213.75-25.48 215.53-26.15 217.33-26.15ZM244.63-26.15L244.63-26.15Q246.83-26.15 248.73-25.38 250.63-24.6 252.05-23.38 253.48-22.15 254.28-20.78 255.08-19.4 255.08-18.15L255.08-18.15 254.28-19.35 254.28-24Q254.28-24.65 254.7-25.1 255.13-25.55 255.78-25.55L255.78-25.55Q256.43-25.55 256.85-25.1 257.28-24.65 257.28-24L257.28-24 257.28-2.35Q257.28 1.65 255.63 4.4 253.98 7.15 251.15 8.58 248.33 10 244.73 10L244.73 10Q242.98 10 241.05 9.55 239.13 9.1 237.75 8.4 236.38 7.7 236.18 6.95L236.18 6.95Q235.83 6.5 235.85 6.08 235.88 5.65 236.28 5.35L236.28 5.35Q236.73 5 237.3 5.28 237.88 5.55 238.98 6L238.98 6Q239.43 6.15 240.3 6.45 241.18 6.75 242.35 6.98 243.53 7.2 244.78 7.2L244.78 7.2Q249.28 7.2 251.78 4.63 254.28 2.05 254.28-2.15L254.28-2.15 254.28-6.95 254.83-6.8Q254.38-5 253.33-3.65 252.28-2.3 250.88-1.38 249.48-0.45 247.88 0.03 246.28 0.5 244.68 0.5L244.68 0.5Q241.23 0.5 238.45-1.25 235.68-3 234.08-6 232.48-9 232.48-12.85L232.48-12.85Q232.48-16.65 234.08-19.68 235.68-22.7 238.43-24.43 241.18-26.15 244.63-26.15ZM244.93-23.35L244.93-23.35Q242.23-23.35 240.05-21.98 237.88-20.6 236.65-18.23 235.43-15.85 235.43-12.85L235.43-12.85Q235.43-9.85 236.65-7.45 237.88-5.05 240.05-3.68 242.23-2.3 244.93-2.3L244.93-2.3Q247.68-2.3 249.83-3.65 251.98-5 253.23-7.38 254.48-9.75 254.48-12.85L254.48-12.85Q254.48-15.95 253.23-18.32 251.98-20.7 249.83-22.03 247.68-23.35 244.93-23.35ZM281.07-35L281.07-35Q281.42-35 281.8-34.85 282.17-34.7 282.42-34.35L282.42-34.35 296.22-13.65 294.87-13.7 308.72-34.35Q309.27-35.1 310.07-35L310.07-35Q310.67-35 311.1-34.58 311.52-34.15 311.52-33.5L311.52-33.5 311.52-1.5Q311.52-0.9 311.07-0.45 310.62 0 309.97 0L309.97 0Q309.27 0 308.82-0.45 308.37-0.9 308.37-1.5L308.37-1.5 308.37-30.45 309.27-30.35 296.62-11.2Q296.47-10.9 296.17-10.73 295.87-10.55 295.47-10.6L295.47-10.6Q295.12-10.55 294.8-10.73 294.47-10.9 294.27-11.2L294.27-11.2 281.57-30.55 282.52-31.2 282.52-1.5Q282.52-0.9 282.1-0.45 281.67 0 281.02 0L281.02 0Q280.37 0 279.97-0.45 279.57-0.9 279.57-1.5L279.57-1.5 279.57-33.5Q279.57-34.1 280-34.55 280.42-35 281.07-35ZM323.07-24.5L323.07-1.5Q323.07-0.9 322.62-0.45 322.17 0 321.57 0L321.57 0Q320.92 0 320.49-0.45 320.07-0.9 320.07-1.5L320.07-1.5 320.07-24.5Q320.07-25.1 320.49-25.55 320.92-26 321.57-26L321.57-26Q322.22-26 322.64-25.55 323.07-25.1 323.07-24.5L323.07-24.5ZM321.57-29.35L321.57-29.35Q320.52-29.35 319.99-29.83 319.47-30.3 319.47-31.2L319.47-31.2 319.47-31.7Q319.47-32.6 320.04-33.08 320.62-33.55 321.62-33.55L321.62-33.55Q322.57-33.55 323.09-33.08 323.62-32.6 323.62-31.7L323.62-31.7 323.62-31.2Q323.62-30.3 323.09-29.83 322.57-29.35 321.57-29.35ZM342.92-26.15L342.92-26.15Q346.22-26.15 348.19-24.83 350.17-23.5 351.04-21.23 351.92-18.95 351.92-16.2L351.92-16.2 351.92-1.5Q351.92-0.9 351.47-0.45 351.02 0 350.42 0L350.42 0Q349.72 0 349.32-0.45 348.92-0.9 348.92-1.5L348.92-1.5 348.92-16.05Q348.92-18.05 348.27-19.7 347.62-21.35 346.14-22.35 344.67-23.35 342.27-23.35L342.27-23.35Q340.12-23.35 338.19-22.35 336.27-21.35 335.07-19.7 333.87-18.05 333.87-16.05L333.87-16.05 333.87-1.5Q333.87-0.9 333.42-0.45 332.97 0 332.37 0L332.37 0Q331.67 0 331.27-0.45 330.87-0.9 330.87-1.5L330.87-1.5 330.87-23.9Q330.87-24.5 331.29-24.95 331.72-25.4 332.37-25.4L332.37-25.4Q333.02-25.4 333.44-24.95 333.87-24.5 333.87-23.9L333.87-23.9 333.87-19.7 332.72-17.9Q332.82-19.5 333.74-20.98 334.67-22.45 336.12-23.63 337.57-24.8 339.34-25.48 341.12-26.15 342.92-26.15ZM380.51-37L380.51-37Q381.16-37 381.59-36.58 382.01-36.15 382.01-35.5L382.01-35.5 382.01-1.5Q382.01-0.9 381.56-0.45 381.11 0 380.51 0L380.51 0Q379.81 0 379.41-0.45 379.01-0.9 379.01-1.5L379.01-1.5 379.01-7.45 379.86-8.15Q379.86-6.75 379.11-5.23 378.36-3.7 376.99-2.4 375.61-1.1 373.79-0.3 371.96 0.5 369.81 0.5L369.81 0.5Q366.51 0.5 363.84-1.25 361.16-3 359.61-6 358.06-9 358.06-12.85L358.06-12.85Q358.06-16.65 359.61-19.68 361.16-22.7 363.81-24.43 366.46-26.15 369.76-26.15L369.76-26.15Q371.86-26.15 373.71-25.4 375.56-24.65 376.99-23.35 378.41-22.05 379.24-20.38 380.06-18.7 380.06-16.9L380.06-16.9 379.01-17.65 379.01-35.5Q379.01-36.1 379.41-36.55 379.81-37 380.51-37ZM370.11-2.3L370.11-2.3Q372.76-2.3 374.81-3.68 376.86-5.05 378.04-7.43 379.21-9.8 379.21-12.85L379.21-12.85Q379.21-15.85 378.04-18.23 376.86-20.6 374.81-21.98 372.76-23.35 370.11-23.35L370.11-23.35Q367.51-23.35 365.44-21.98 363.36-20.6 362.19-18.23 361.01-15.85 361.01-12.85L361.01-12.85Q361.01-9.85 362.19-7.45 363.36-5.05 365.44-3.68 367.51-2.3 370.11-2.3ZM388.41-4.05L388.41-4.05Q388.01-4.65 388.04-5.23 388.06-5.8 388.66-6.15L388.66-6.15Q389.06-6.5 389.59-6.45 390.11-6.4 390.56-5.95L390.56-5.95Q391.91-4.2 393.84-3.13 395.76-2.05 398.41-2.05L398.41-2.05Q399.81-2.05 401.19-2.53 402.56-3 403.46-3.98 404.36-4.95 404.36-6.45L404.36-6.45Q404.36-8 403.46-8.95 402.56-9.9 401.14-10.45 399.71-11 398.11-11.4L398.11-11.4Q396.41-11.85 394.81-12.43 393.21-13 391.99-13.88 390.76-14.75 390.01-16 389.26-17.25 389.26-19.05L389.26-19.05Q389.26-21.15 390.41-22.75 391.56-24.35 393.54-25.25 395.51-26.15 398.01-26.15L398.01-26.15Q399.26-26.15 400.71-25.83 402.16-25.5 403.56-24.75 404.96-24 406.06-22.7L406.06-22.7Q406.51-22.25 406.51-21.68 406.51-21.1 406.01-20.65L406.01-20.65Q405.61-20.35 405.09-20.35 404.56-20.35 404.21-20.75L404.21-20.75Q403.01-22.1 401.36-22.8 399.71-23.5 397.81-23.5L397.81-23.5Q396.36-23.5 395.09-23.03 393.81-22.55 392.96-21.6 392.11-20.65 392.11-19.1L392.11-19.1Q392.21-17.65 393.14-16.75 394.06-15.85 395.59-15.25 397.11-14.65 399.01-14.15L399.01-14.15Q400.61-13.75 402.09-13.2 403.56-12.65 404.69-11.83 405.81-11 406.49-9.75 407.16-8.5 407.16-6.6L407.16-6.6Q407.16-4.4 405.94-2.8 404.71-1.2 402.66-0.35 400.61 0.5 398.11 0.5L398.11 0.5Q395.41 0.5 392.89-0.55 390.36-1.6 388.41-4.05Z" opacity="1" transform="matrix(1,0,0,1,0,0)" fill="#050505" class="slogan-text-1" data-fill-palette-color="secondary" id="text-1"></path></svg></g></svg></g></svg></g></svg></g></svg></g><defs></defs></svg><rect width="395.52" height="96.89715198360409" fill="none" stroke="none" visibility="hidden"></rect></g></svg></g></svg>